<svg xmlns="http://www.w3.org/2000/svg" viewBox="0 0 640 640"><!--! Font Awesome Pro 7.0.1 by @fontawesome - https://fontawesome.com License - https://fontawesome.com/license (Commercial License) Copyright 2025 Fonticons, Inc. --><path fill="currentColor" d="M165 110.3C161.8 115.5 160 121.6 160 127.7C160 145.5 174.4 160 192 160C209.6 160 224 145.5 224 127.7C224 121.5 222.2 115.4 219 110.3L192 67.8L165 110.3zM151.5 101.7L182.2 53.4C184.3 50 188 48 192 48C196 48 199.7 50 201.8 53.4L232.5 101.7C237.4 109.4 240 118.5 240 127.7C240 154.2 218.5 176 192 176C165.5 176 144 154.2 144 127.7C144 118.5 146.6 109.5 151.5 101.7zM448 272L192 272C147.8 272 112 307.8 112 352L112 407C124.6 409.6 136.9 414.1 148.4 420.7L155.5 424.8C187.2 442.9 226.6 440.9 256.3 419.7C294.4 392.5 345.6 392.5 383.7 419.7C413.4 440.9 452.8 442.9 484.5 424.8L491.6 420.7C503 414.2 515.3 409.6 528 407L528 352C528 307.8 492.2 272 448 272zM112 423.4L112 512C112 538.5 133.5 560 160 560L480 560C506.5 560 528 538.5 528 512L528 423.4C518.1 425.7 508.6 429.5 499.6 434.6L492.5 438.7C455.4 459.9 409.2 457.6 374.4 432.7C341.9 409.5 298.1 409.5 265.6 432.7C230.8 457.6 184.7 459.9 147.5 438.7L140.4 434.6C131.4 429.5 121.8 425.7 112 423.4zM96 352C96 301.7 134.7 260.4 184 256.3L184 216C184 211.6 187.6 208 192 208C196.4 208 200 211.6 200 216L200 256L312 256L312 216C312 211.6 315.6 208 320 208C324.4 208 328 211.6 328 216L328 256L440 256L440 216C440 211.6 443.6 208 448 208C452.4 208 456 211.6 456 216L456 256.3C505.3 260.4 544 301.6 544 352L544 512C544 547.3 515.3 576 480 576L160 576C124.7 576 96 547.3 96 512L96 352zM320 67.8L293 110.3C289.7 115.5 288 121.5 288 127.7C288 145.5 302.4 160 320 160C337.6 160 352 145.5 352 127.7C352 121.5 350.2 115.4 347 110.3L320 67.8zM310.2 53.4C312.3 50 316 48 320 48C324 48 327.7 50 329.8 53.4L360.5 101.7C365.4 109.4 368 118.5 368 127.7C368 154.2 346.5 176 320 176C293.5 176 272 154.2 272 127.7C272 118.5 274.6 109.5 279.5 101.7L310.2 53.4zM421 110.3C417.7 115.5 416 121.5 416 127.7C416 145.5 430.4 160 448 160C465.6 160 480 145.5 480 127.7C480 121.5 478.2 115.4 475 110.3L448 67.8L421 110.3zM407.5 101.7L438.2 53.4C440.3 50 444 48 448 48C452 48 455.7 50 457.8 53.4L488.5 101.7C493.4 109.4 496 118.5 496 127.7C496 154.2 474.5 176 448 176C421.5 176 400 154.2 400 127.7C400 118.5 402.6 109.5 407.5 101.7z"/></svg>